# xmcd
#
# Track frame offsets:
#	150
#	21758
#	33355
#	45229
#	64553
#	77088
#	89343
#	103821
#	116453
#	128836
#	150556
#	163017
#
# Disc length: 2359 seconds
#
# Revision: 0
# Processed by: cddbd v1.5.2PL0 Copyright (c) Steve Scherf et al.
# Submitted via: dBpowerAMP V4.0
#
DISCID=8909350c
DTITLE=Laura Love - NeGrass
DYEAR=2007
DGENRE=Bluegrass
TTITLE0=saskatchewan (juneteenth)
TTITLE1=brogan
TTITLE2=john hardy
TTITLE3=savin'
TTITLE4=shady grove
TTITLE5=angry days
TTITLE6=passin'
TTITLE7=load up
TTITLE8=this train
TTITLE9=the cuckoo
TTITLE10=can't understand
TTITLE11=he is my rock
EXTD=
EXTT0=
EXTT1=
EXTT2=
EXTT3=
EXTT4=
EXTT5=
EXTT6=
EXTT7=
EXTT8=
EXTT9=
EXTT10=
EXTT11=
PLAYORDER=
